<svg xmlns="http://www.w3.org/2000/svg" version="1.1" xmlns:xlink="http://www.w3.org/1999/xlink" xmlns:svgjs="http://svgjs.dev/svgjs" width="2000" height="1500" viewBox="0 0 2000 1500"><rect width="2000" height="1500" fill="#1f0f53"></rect><g transform="matrix(0.75,0,0,0.75,249.0909289350418,562.8458262877532)"><svg viewBox="0 0 396 99" data-background-color="#1f0f53" preserveAspectRatio="xMidYMid meet" height="499" width="2000" xmlns="http://www.w3.org/2000/svg" xmlns:xlink="http://www.w3.org/1999/xlink"><defs></defs><g id="tight-bounds" transform="matrix(1,0,0,1,0.2399947611489779,0.007717294622409554)"><svg viewBox="0 0 395.52 98.98456115615085" height="98.98456115615085" width="395.52"><g><svg viewBox="0 0 395.52 98.98456115615085" height="98.98456115615085" width="395.52"><g><svg viewBox="0 0 395.52 98.98456115615085" height="98.98456115615085" width="395.52"><g><svg viewBox="0 0 395.52 98.98456115615085" height="98.98456115615085" width="395.52"><g><svg viewBox="0 0 395.52 98.98456115615085" height="98.98456115615085" width="395.52"><g transform="matrix(1,0,0,1,0,0)"><svg width="395.52" viewBox="3.3499999046325684 -34.900001525878906 141.83999633789062 35.5" height="98.98456115615085" data-palette-color="#ffdb99"><path d="M3.35 0L3.35-34.3 10.6-34.3 10.6-6.3 29.1-6.3 29.1 0 3.35 0ZM50 0.6Q41.75 0.6 37.2-3.83 32.65-8.25 32.65-17.15L32.65-17.15Q32.65-26.05 37.2-30.48 41.75-34.9 50-34.9L50-34.9Q58.3-34.9 62.85-30.48 67.4-26.05 67.4-17.15L67.4-17.15Q67.4-8.25 62.85-3.83 58.3 0.6 50 0.6L50 0.6ZM50-5.55Q54.9-5.55 57.42-8.38 59.95-11.2 59.95-16.4L59.95-16.4 59.95-17.9Q59.95-23.1 57.42-25.93 54.9-28.75 50-28.75L50-28.75Q45.1-28.75 42.6-25.93 40.1-23.1 40.1-17.9L40.1-17.9 40.1-16.4Q40.1-11.2 42.6-8.38 45.1-5.55 50-5.55L50-5.55ZM88.15 0.6Q80.2 0.6 75.87-3.75 71.55-8.1 71.55-17.15L71.55-17.15Q71.55-26 76.15-30.45 80.75-34.9 89.15-34.9L89.15-34.9Q93.6-34.9 97.27-33.52 100.95-32.15 103.12-29.38 105.3-26.6 105.3-22.6L105.3-22.6 97.8-22.6Q97.8-25.4 95.32-27.08 92.85-28.75 89.4-28.75L89.4-28.75Q84.15-28.75 81.57-25.95 79-23.15 79-17.9L79-17.9 79-16.4Q79-10.9 81.37-8.22 83.75-5.55 88.65-5.55L88.65-5.55Q92.7-5.55 95.35-7.48 98-9.4 98.05-12.7L98.05-12.7 87.65-12.7 87.65-18.65 105.3-18.65 105.3 0 100.3 0 99.65-3.8Q97.25-1.5 94.6-0.45 91.95 0.6 88.15 0.6L88.15 0.6ZM127.79 0.6Q119.54 0.6 114.99-3.83 110.44-8.25 110.44-17.15L110.44-17.15Q110.44-26.05 114.99-30.48 119.54-34.9 127.79-34.9L127.79-34.9Q136.09-34.9 140.64-30.48 145.19-26.05 145.19-17.15L145.19-17.15Q145.19-8.25 140.64-3.83 136.09 0.6 127.79 0.6L127.79 0.6ZM127.79-5.55Q132.69-5.55 135.22-8.38 137.74-11.2 137.74-16.4L137.74-16.4 137.74-17.9Q137.74-23.1 135.22-25.93 132.69-28.75 127.79-28.75L127.79-28.75Q122.89-28.75 120.39-25.93 117.89-23.1 117.89-17.9L117.89-17.9 117.89-16.4Q117.89-11.2 120.39-8.38 122.89-5.55 127.79-5.55L127.79-5.55Z" opacity="1" transform="matrix(1,0,0,1,0,0)" fill="#ffdb99" class="undefined-text-0" data-fill-palette-color="primary" id="text-0"></path></svg></g></svg></g></svg></g></svg></g></svg></g></svg><rect width="395.52" height="98.98456115615085" fill="none" stroke="none" visibility="hidden"></rect></g></svg></g></svg>